<svg xmlns="http://www.w3.org/2000/svg" width="16.956" height="16.956" viewBox="0 0 16.956 16.956">
  <path id="Path_3" data-name="Path 3" d="M8.478,1.507a26,26,0,0,1,3.391.094,4.369,4.369,0,0,1,1.6.283,3.308,3.308,0,0,1,1.6,1.6,4.369,4.369,0,0,1,.283,1.6c0,.848.094,1.13.094,3.391a25.994,25.994,0,0,1-.094,3.391,4.369,4.369,0,0,1-.283,1.6,3.308,3.308,0,0,1-1.6,1.6,4.369,4.369,0,0,1-1.6.283c-.848,0-1.13.094-3.391.094a25.994,25.994,0,0,1-3.391-.094,4.369,4.369,0,0,1-1.6-.283,3.308,3.308,0,0,1-1.6-1.6,4.369,4.369,0,0,1-.283-1.6c0-.848-.094-1.13-.094-3.391A26,26,0,0,1,1.6,5.087a4.369,4.369,0,0,1,.283-1.6,3.383,3.383,0,0,1,.659-.942,1.593,1.593,0,0,1,.942-.659,4.369,4.369,0,0,1,1.6-.283,26,26,0,0,1,3.391-.094M8.478,0A27.833,27.833,0,0,0,4.992.094,5.815,5.815,0,0,0,2.92.471a3.688,3.688,0,0,0-1.507.942A3.688,3.688,0,0,0,.471,2.92,4.292,4.292,0,0,0,.094,4.992,27.833,27.833,0,0,0,0,8.478a27.833,27.833,0,0,0,.094,3.485,5.815,5.815,0,0,0,.377,2.072,3.688,3.688,0,0,0,.942,1.507,3.688,3.688,0,0,0,1.507.942,5.815,5.815,0,0,0,2.072.377,27.832,27.832,0,0,0,3.485.094,27.832,27.832,0,0,0,3.485-.094,5.815,5.815,0,0,0,2.072-.377,3.952,3.952,0,0,0,2.449-2.449,5.815,5.815,0,0,0,.377-2.072c0-.942.094-1.225.094-3.485a27.832,27.832,0,0,0-.094-3.485,5.815,5.815,0,0,0-.377-2.072,3.688,3.688,0,0,0-.942-1.507A3.688,3.688,0,0,0,14.035.471,5.815,5.815,0,0,0,11.963.094,27.833,27.833,0,0,0,8.478,0m0,4.145A4.263,4.263,0,0,0,4.145,8.478,4.333,4.333,0,1,0,8.478,4.145m0,7.159A2.775,2.775,0,0,1,5.652,8.478,2.775,2.775,0,0,1,8.478,5.652,2.775,2.775,0,0,1,11.3,8.478,2.775,2.775,0,0,1,8.478,11.3M13,2.92a1.036,1.036,0,1,0,1.036,1.036A1.045,1.045,0,0,0,13,2.92" fill="#28373b" fill-rule="evenodd"/>
</svg>
