<svg id="Instagram" xmlns="http://www.w3.org/2000/svg" width="13.028" height="13.028" viewBox="0 0 13.028 13.028">
  <path id="Path_3" data-name="Path 3" d="M6.514,1.158A19.973,19.973,0,0,1,9.12,1.23a3.357,3.357,0,0,1,1.23.217,2.542,2.542,0,0,1,1.23,1.23,3.357,3.357,0,0,1,.217,1.23c0,.651.072.869.072,2.606A19.973,19.973,0,0,1,11.8,9.12a3.357,3.357,0,0,1-.217,1.23,2.542,2.542,0,0,1-1.23,1.23,3.357,3.357,0,0,1-1.23.217c-.651,0-.869.072-2.606.072A19.973,19.973,0,0,1,3.908,11.8a3.357,3.357,0,0,1-1.23-.217,2.542,2.542,0,0,1-1.23-1.23A3.357,3.357,0,0,1,1.23,9.12c0-.651-.072-.869-.072-2.606A19.973,19.973,0,0,1,1.23,3.908a3.357,3.357,0,0,1,.217-1.23,2.6,2.6,0,0,1,.507-.724,1.224,1.224,0,0,1,.724-.507,3.357,3.357,0,0,1,1.23-.217,19.973,19.973,0,0,1,2.606-.072M6.514,0A21.385,21.385,0,0,0,3.836.072a4.468,4.468,0,0,0-1.592.29,2.833,2.833,0,0,0-1.158.724A2.833,2.833,0,0,0,.362,2.244a3.3,3.3,0,0,0-.29,1.592A21.385,21.385,0,0,0,0,6.514,21.385,21.385,0,0,0,.072,9.192a4.468,4.468,0,0,0,.29,1.592,2.833,2.833,0,0,0,.724,1.158,2.833,2.833,0,0,0,1.158.724,4.468,4.468,0,0,0,1.592.29,21.385,21.385,0,0,0,2.678.072,21.385,21.385,0,0,0,2.678-.072,4.468,4.468,0,0,0,1.592-.29,3.037,3.037,0,0,0,1.882-1.882,4.468,4.468,0,0,0,.29-1.592c0-.724.072-.941.072-2.678a21.385,21.385,0,0,0-.072-2.678,4.468,4.468,0,0,0-.29-1.592,2.833,2.833,0,0,0-.724-1.158A2.833,2.833,0,0,0,10.784.362,4.468,4.468,0,0,0,9.192.072,21.385,21.385,0,0,0,6.514,0m0,3.185A3.276,3.276,0,0,0,3.185,6.514,3.329,3.329,0,1,0,6.514,3.185m0,5.5A2.133,2.133,0,0,1,4.343,6.514,2.133,2.133,0,0,1,6.514,4.343,2.133,2.133,0,0,1,8.685,6.514,2.133,2.133,0,0,1,6.514,8.685M9.988,2.244a.8.8,0,1,0,.8.8.8.8,0,0,0-.8-.8" fill="#f933df" fill-rule="evenodd"/>
</svg>
