<svg id="Twitter" xmlns="http://www.w3.org/2000/svg" width="17.25" height="13.992" viewBox="0 0 17.25 13.992">
  <path id="Path_2" data-name="Path 2" d="M43.463,15.992A9.973,9.973,0,0,0,53.525,5.929V5.45A7.79,7.79,0,0,0,55.25,3.629a7.956,7.956,0,0,1-2.013.575,3.729,3.729,0,0,0,1.533-1.917,8.79,8.79,0,0,1-2.2.863A3.423,3.423,0,0,0,49.979,2a3.6,3.6,0,0,0-3.546,3.546,1.868,1.868,0,0,0,.1.767,9.908,9.908,0,0,1-7.283-3.738A3.67,3.67,0,0,0,38.767,4.4,3.808,3.808,0,0,0,40.3,7.367a3.231,3.231,0,0,1-1.629-.479h0a3.5,3.5,0,0,0,2.875,3.45,2.954,2.954,0,0,1-.958.1,1.631,1.631,0,0,1-.671-.1,3.631,3.631,0,0,0,3.354,2.492,7.236,7.236,0,0,1-4.408,1.533,2.653,2.653,0,0,1-.863-.1,9.046,9.046,0,0,0,5.463,1.725" transform="translate(-38 -2)" fill="#00a2ff" fill-rule="evenodd"/>
</svg>
