<svg xmlns="http://www.w3.org/2000/svg" width="17.686" height="17.686" viewBox="0 0 17.686 17.686">
  <path id="Path_4" data-name="Path 4" d="M2.653,2.653A8.028,8.028,0,0,1,8.843,0a8.028,8.028,0,0,1,6.19,2.653,8.028,8.028,0,0,1,2.653,6.19,8.028,8.028,0,0,1-2.653,6.19,8.028,8.028,0,0,1-6.19,2.653,8.028,8.028,0,0,1-6.19-2.653A8.825,8.825,0,0,1,0,8.843,8.028,8.028,0,0,1,2.653,2.653Zm7.369,13.264a3.621,3.621,0,0,0,2.211-1.326A6.437,6.437,0,0,0,13.264,11.5a2.441,2.441,0,0,0-.737-1.769,2.594,2.594,0,0,0-1.916-.884H9.138a4.3,4.3,0,0,1-1.326-.295,1.338,1.338,0,0,1-.442-1.032.766.766,0,0,1,.295-.59,1.117,1.117,0,0,1,.59-.295,1.006,1.006,0,0,1,.737.442c.295.147.442.295.59.295a.886.886,0,0,0,.59-.147.886.886,0,0,0,.147-.59A2.345,2.345,0,0,0,9.58,5.158a6.1,6.1,0,0,0,.737-2.8.317.317,0,0,0-.295-.295,4.556,4.556,0,0,0-1.179-.295A7.372,7.372,0,0,0,5.011,2.948,3.71,3.71,0,0,0,3.685,5.9,3.774,3.774,0,0,0,4.864,8.7a4.026,4.026,0,0,0,2.8,1.179h0v.59a1.892,1.892,0,0,0,.59,1.474,2.146,2.146,0,0,0,1.326.884v2.653c0,.147,0,.147.147.295S9.875,15.917,10.022,15.917Z" fill="#28373b"/>
</svg>
